<svg width="133" height="32" viewBox="0 0 133 32" fill="none" xmlns="http://www.w3.org/2000/svg">
<g clip-path="url(#clip0_467_4965)">
<path d="M5.72917 18.9307C6.01719 24.2875 9.29914 28.7562 14.5071 30.8251C16.4672 31.6044 18.5335 32 20.6486 32C24.5893 32 28.3277 30.6237 31.171 28.1269C31.4058 27.921 31.5387 27.6328 31.5447 27.3152C31.5505 26.9932 31.4205 26.6814 31.1857 26.4608L28.6511 24.064C28.2287 23.6655 27.5862 23.6493 27.1209 24.0287C24.2924 26.3315 20.1804 26.9093 16.6415 25.5021C15.6386 25.1036 13.5973 24.0096 12.4836 22.0892C14.3609 22.4995 16.4982 22.6377 18.5365 22.4818C23.4121 22.1084 27.1549 19.8659 28.8047 16.3295C30.1887 13.3621 29.8682 9.88752 27.9688 7.26275C25.9718 4.50126 22.6588 3.16021 18.8792 3.5837C13.9207 4.141 9.32573 7.30245 7.13973 11.974C7.04224 11.8123 6.87681 11.5256 6.79114 11.3623C5.48989 8.85818 5.42343 5.99964 6.61834 3.90426C6.8842 3.43813 6.769 2.84554 6.34361 2.4941L3.63918 0.259029C3.43239 0.0884583 3.12075 -0.0247629 2.82977 0.0046459C2.43984 0.0443479 2.11931 0.25168 1.93616 0.532535C-0.548195 4.3645 -0.648628 9.52429 1.67473 13.9959C2.67616 15.9222 4.05866 17.597 5.72622 18.9307M17.4272 16.7912C15.5395 16.8736 13.4215 16.6206 11.7761 15.8913C12.8263 11.9755 16.5233 9.6184 19.5231 9.28167C21.201 9.09198 22.5363 9.56694 23.294 10.6138C23.9793 11.5608 24.0709 12.8181 23.5806 13.915C22.7135 15.8516 20.3237 16.6677 17.4272 16.7927" fill="black"/>
<path d="M78.6338 27.677C79.4048 29.9591 82.3854 31.4457 85.3779 31.2648L85.9333 31.2016C86.5595 31.1296 87.0307 30.6016 87.0307 29.9753V27.1755C87.0307 26.5771 86.5949 26.0654 85.9938 25.961C85.2243 25.8257 84.8181 25.3728 84.8181 24.6508V5.6321C84.8181 4.95128 84.2612 4.39692 83.5774 4.39692H79.9823C79.3546 4.39692 78.8258 4.86453 78.7505 5.48505L78.5644 7.03783C77.3679 5.28213 74.9457 3.76758 71.3742 3.76758C62.5726 3.76758 58.5625 10.9492 58.5625 17.6235C58.5625 24.2979 62.9625 31.584 71.3742 31.584C74.2574 31.584 77.2734 30.0503 78.6323 27.6784M71.9015 25.3228C66.0628 25.3228 65.4321 19.938 65.4321 17.6235C65.4321 14.5503 67.1543 9.97583 71.9015 9.97583C76.2986 9.97583 78.2659 13.2108 78.2659 16.4164V18.4088C78.2659 22.6084 75.7683 25.3214 71.9015 25.3214" fill="black"/>
<path d="M96.5513 7.57586L96.38 5.529C96.327 4.89377 95.7837 4.39677 95.1441 4.39677H91.5268C90.843 4.39677 90.2861 4.95112 90.2861 5.63194V29.7193C90.2861 30.4001 90.843 30.9545 91.5268 30.9545H95.757C96.4406 30.9545 96.9978 30.4001 96.9978 29.7193V16.2603C96.9978 14.3193 97.4838 12.8753 98.4404 11.9695C99.4702 10.9946 101.069 10.5755 103.33 10.6888C103.68 10.705 104.005 10.5829 104.253 10.3491C104.5 10.1154 104.637 9.79919 104.637 9.45949V5.10846C104.637 4.44823 104.098 3.8924 103.436 3.87181C100.105 3.76447 97.7658 4.92025 96.5532 7.57733" fill="black"/>
<path d="M119.226 3.61011C111.443 3.61011 105.573 9.63454 105.573 17.6234C105.573 25.6123 111.465 31.6367 119.28 31.6367C127.095 31.6367 132.934 25.6123 132.934 17.6234C132.934 9.63454 127.042 3.61011 119.226 3.61011ZM119.278 25.48C114.555 25.48 112.442 21.5878 112.442 17.7293C112.442 12.2225 115.986 9.7154 119.278 9.7154C123.733 9.7154 126.064 13.7473 126.064 17.7293C126.064 21.7113 123.965 25.48 119.278 25.48Z" fill="black"/>
<path d="M44.6885 24.8464C43.5851 23.0113 38.4702 5.96741 38.2561 5.24836C38.0907 4.73958 37.6165 4.39697 37.0774 4.39697H32.6552C32.2549 4.39697 31.8753 4.59107 31.6434 4.91751C31.4115 5.24395 31.3524 5.66302 31.4854 6.03945C31.5385 6.20561 36.717 22.4923 39.0803 27.63C40.2693 30.2164 42.2086 31.584 44.6899 31.584C47.1714 31.584 49.1107 30.2164 50.2983 27.63C52.66 22.4923 57.8399 6.20561 57.8917 6.04239C58.0246 5.66302 57.9655 5.24395 57.7336 4.91751C57.5017 4.59107 57.1236 4.39697 56.7218 4.39697H52.2996C51.7605 4.39697 51.2864 4.73958 51.1195 5.24983C50.9053 5.96741 45.7904 23.0113 44.6871 24.8464" fill="black"/>
</g>
<defs>
<clipPath id="clip0_467_4965">
<rect width="133" height="32" fill="white"/>
</clipPath>
</defs>
</svg>
